<?xml version="1.0" standalone="no"?>
<!DOCTYPE svg PUBLIC "-//W3C//DTD SVG 20010904//EN"
 "http://www.w3.org/TR/2001/REC-SVG-20010904/DTD/svg10.dtd">
<svg version="1.0" xmlns="http://www.w3.org/2000/svg"
 width="256.000000pt" height="256.000000pt" viewBox="0 0 512.000000 512.000000"
 preserveAspectRatio="xMidYMid meet">

<g transform="translate(0.000000,512.000000) scale(0.100000,-0.100000)"
fill="#fff" stroke="none">
<path d="M4354 4960 c-18 -4 -47 -16 -65 -28 -61 -38 -607 -594 -624 -635 -39
-93 50 -194 147 -166 21 5 74 49 143 116 60 60 154 151 209 203 l98 95 -6
-152 c-41 -1037 -428 -1786 -1099 -2129 -111 -57 -236 -108 -244 -100 -3 2 7
55 21 118 50 224 61 328 61 573 0 252 -8 320 -57 475 -55 172 -115 268 -258
411 -197 198 -416 303 -661 316 -482 26 -926 -297 -1076 -784 -25 -82 -27
-101 -27 -263 0 -161 3 -182 27 -263 61 -197 149 -342 306 -498 156 -157 331
-262 559 -338 180 -60 437 -97 623 -89 49 1 89 1 89 0 0 -13 -143 -286 -195
-372 -203 -337 -479 -617 -780 -795 -394 -232 -853 -300 -1347 -200 -74 15
-79 15 -121 -3 -99 -44 -101 -174 -4 -221 134 -63 596 -94 852 -56 445 65 841
265 1179 594 283 277 510 618 670 1007 l38 91 79 21 c479 129 906 453 1182
900 232 374 370 822 422 1368 8 87 15 201 15 255 0 53 3 105 6 114 5 13 52
-29 209 -185 220 -220 235 -230 311 -204 66 22 97 89 75 156 -16 49 -624 654
-666 663 -53 11 -59 11 -91 5z m-2219 -1176 c141 -36 279 -125 404 -261 119
-128 175 -267 202 -494 26 -227 -18 -601 -102 -875 l-19 -62 -77 -8 c-117 -10
-375 2 -484 25 -378 77 -663 271 -808 551 -66 127 -86 207 -86 345 0 141 16
211 75 331 120 245 359 422 625 465 65 10 195 2 270 -17z"/>
</g>
</svg>
